# xmcd
#
# Track frame offsets: 
#        150
#        19737
#        31412
#        48742
#        63739
#        78975
#        97327
#        110237
#        128397
#        139357
#        153050
#        168862
#        185230
#        199465
#
# Disc length: 2887 seconds
#
# Revision: 2
# Processed by: cddbd v1.5.2PL0 Copyright (c) Steve Scherf et al.
# Submitted via: ExactAudioCopy v0.95a5
#
DISCID=cd0b450e
DTITLE=Various Artist - HOT HITS COUNTRY VOL 39
DYEAR=1900
DGENRE=Country
TTITLE0=ALAN JACKSON - GONE COUNTRY
TTITLE1=MARK CHESNUTT - GOIN THROUGH THE BIG D
TTITLE2=REBA MCENTIRE - TILL YOU LOVE ME
TTITLE3=MARTINA MCBRIDE - HEART TROUBLE
TTITLE4=BROOKS and DUNN - I'LL NEVER FORGIVE MY HEART
TTITLE5=TRAVIS TRITT - BETWEEN AN OLD MEMORY AND ME
TTITLE6=PAM TILLIS - MI VIDA LOCA (MY CRAZY LIFE)
TTITLE7=JOHN BERRY - YOU AND ONLY YOU
TTITLE8=TRACY BYRD - FIRST STEP
TTITLE9=KATHY MATTEA - MAYBE SHE'S HUMAN
TTITLE10=DIAMOND RIO - NIGHT IS FALLIN IN MY HEART
TTITLE11=JOE DIFFIE - PICKUP MAN
TTITLE12=RICK TREVINO - DOCTOR TIME
TTITLE13=AARON TIPPIN - I GOT IT HONEST
EXTD=
EXTT0=Jackson - Alan
EXTT1=Chesnutt - Mark
EXTT2=McEntire - Reba
EXTT3=McBride - Martina
EXTT4=Brooks and Dunn
EXTT5=Tritt - Travis
EXTT6=Tillis - Pam
EXTT7=Berry - John
EXTT8=Byrd - Tracy
EXTT9=Mattea - Kathy
EXTT10=Diamond Rio
EXTT11=Diffie - Joe
EXTT12=Trevino - Rick
EXTT13=Tippin - Aaron
PLAYORDER=
